<svg width="200" height="51" viewBox="0 0 200 51" fill="none" xmlns="http://www.w3.org/2000/svg">
<path d="M24.6054 25.474L0.000244141 0.825195V50.1198L24.6054 25.474Z" fill="#F58220"/>
<path d="M28.6539 0.889648H50.3313L26.0445 25.473L15.1262 14.5515L28.6539 0.889648Z" fill="#8ED8F8"/>
<path d="M26.0442 25.4736L50.0969 49.5232H28.5163L15.1072 36.111L26.0442 25.4736Z" fill="#A7A9AC"/>
<path d="M85.7078 41.1906H79.7212L66.9957 27.3414V41.1906H62.5042V9.75293H66.9957V23.6021L78.9721 9.75293H84.9587L71.1096 25.144L85.7047 41.1906H85.7078Z" fill="white"/>
<path d="M117.879 41.1917H113.013L109.973 34.4559H109.957L102.909 18.9244L95.8613 34.4559H95.8457L92.8055 41.1917H87.9395L102.909 9.00488L117.879 41.1917Z" fill="white"/>
<path d="M119.789 9.75293L130.454 28.4651V41.1906H125.963V28.4651L114.736 9.75293H119.789ZM141.685 9.75293L131.84 26.1584L129.465 22.0165L136.631 9.75293H141.685Z" fill="white"/>
<path d="M168.488 41.1917H163.622L160.582 34.4559H160.566L153.518 18.9244L146.47 34.4559H146.455L143.414 41.1917H138.548L153.518 9.00488L168.488 41.1917Z" fill="white"/>
<path d="M200 9.75399V41.9408L173.8 15.2007V9.00488L195.505 31.2753V9.75399H199.997H200ZM173.8 18.993L178.291 23.5095V41.1948H173.8V18.993Z" fill="white"/>
</svg>
